<svg id="Capa_1" enable-background="new 0 0 512 512" height="512" viewBox="0 0 512 512" width="512" xmlns="http://www.w3.org/2000/svg"><g><path d="m0 247.63c0 69.571 68.28 138.37 153.8 138.37 42.939 0 86.576 18.835 119.722 51.675 24.587 24.356 57.565 38.325 90.478 38.325 39.41 0 76.654-20.103 104.871-56.605 27.813-35.978 43.129-83.352 43.129-133.395v-60c0-92.823-55.807-190-145-190h-65.998c-5.522 0-10 4.478-10 10s4.478 10 10 10h65.998c68.925 0 125 76.262 125 170 0 45.639-13.833 88.669-38.952 121.163-24.345 31.493-55.969 48.837-89.048 48.837-27.276 0-55.838-12.162-76.402-32.533-36.861-36.522-85.628-57.467-133.798-57.467-67.523 0-127.284-50.553-133.215-112.688-3.408-35.774 7.923-70.001 31.904-96.376 23.656-26.015 57.374-40.936 92.511-40.936h66c5.522 0 10-4.478 10-10s-4.478-10-10-10h-66c-40.759 0-79.871 17.307-107.308 47.481-31.346 34.474-37.692 68.604-37.692 110.779zm153.8 78.37c42.939 0 86.576 18.834 119.722 51.675 24.587 24.356 57.565 38.325 90.478 38.325 39.41 0 76.654-20.103 104.871-56.605 7.06-9.133 13.311-19.003 18.714-29.461-5.924 28.888-17.686 55.431-34.537 77.23-24.345 31.492-55.969 48.836-89.048 48.836-27.276 0-55.838-12.162-76.402-32.533-36.861-36.522-85.628-57.467-133.798-57.467-67.441 0-127.134-50.43-133.189-112.447 26.785 42.93 77.563 72.447 133.189 72.447z"/><path d="m306 271c0 30.327 24.673 55 55 55s55-24.673 55-55-24.673-55-55-55-55 24.673-55 55zm55-35c19.299 0 35 15.701 35 35s-15.701 35-35 35-35-15.701-35-35 15.701-35 35-35z"/><path d="m98.929 218.929c-3.905 3.905-3.905 10.237 0 14.143 3.907 3.906 10.236 3.904 14.143 0l120-120c3.905-3.905 3.905-10.237 0-14.143-3.906-3.904-10.236-3.904-14.143 0z"/><path d="m338.929 98.929-120 120c-3.905 3.905-3.905 10.237 0 14.143 3.907 3.906 10.236 3.904 14.143 0l120-120c3.905-3.905 3.905-10.237 0-14.143-3.907-3.904-10.237-3.904-14.143 0z"/><circle cx="256.001" cy="46" r="10"/></g></svg>