<svg height="512pt" viewBox="-52 0 512 512.00183" width="512pt" xmlns="http://www.w3.org/2000/svg"><path d="m388.988281 173.339844h-63.417969c1.535157-6.003906 2.652344-12.121094 3.742188-18.167969 1.734375-9.613281 3.371094-18.691406 6.613281-27 2.058594-5.285156 2.617188-10.945313 1.847657-16.425781l23.097656-24.914063c13.128906 7.3125 29.902344 4.277344 39.644531-7.40625 10.746094-12.878906 9.320313-32.492187-3.175781-43.71875-5.402344-4.855469-12.367188-7.683593-19.570313-8.042969-1.042969-8.601562-5.527343-16.3125-12.6875-21.589843-12.472656-9.191407-30.121093-7.816407-41.054687 3.199219-10.8125 10.894531-12.191406 27.527343-3.546875 40.171874l-22.699219 24.480469c-5.769531-.5-11.648438.488281-16.992188 3.078125-7.34375 3.5625-15.519531 5.734375-23.945312 7.824219-4.03125 1-6.484375 5.078125-5.484375 9.105469s5.074219 6.484375 9.101563 5.484375c9.234374-2.292969 18.238281-4.695313 26.886718-8.890625 6.550782-3.175782 14.660156-1.875 20.175782 3.238281l9.550781 8.851563c5.570312 5.164062 7.519531 13.242187 4.84375 20.097656-3.765625 9.664062-5.609375 19.894531-7.394531 29.789062-1.304688 7.234375-2.582032 14.277344-4.542969 20.839844h-104.128907c-5.253906-16.957031-2.394531-36.277344 9.097657-51.179688 3.984375-5.171874 8.777343-9.261718 14.648437-12.507812 3.628906-2.011719 4.945313-6.582031 2.9375-10.214844-2.007812-3.628906-6.578125-4.945312-10.210937-2.9375-7.707031 4.261719-14.007813 9.652344-19.277344 16.480469-5.269531 6.832031-9.199219 14.496094-11.691406 22.605469-14.5625-21.511719-39.195313-35.679688-67.070313-35.679688-42.101562 0-76.78125 32.308594-80.585937 73.433594h-23.867188c-10.933593 0-19.832031 8.898438-19.832031 19.832031v26.324219c0 10.933594 8.898438 19.832031 19.832031 19.832031h4.042969l31.617188 223.285157c-.003907.105468-.015626.210937-.015626.316406v32.570312c0 9.097656 7.398438 16.496094 16.496094 16.496094h264.878906c9.09375 0 16.496094-7.398438 16.496094-16.496094v-32.570312c0-.105469-.011718-.210938-.015625-.316406l31.613281-223.285157h4.042969c10.9375 0 19.832031-8.898437 19.832031-19.832031v-26.324219c.003907-10.9375-8.894531-19.835937-19.832031-19.835937zm-71.25-90.597656c-1.390625-1.289063-2.882812-2.429688-4.4375-3.449219l19.273438-20.789063c4.34375-4.683594 4.710937-11.730468.878906-16.757812-5.242187-6.867188-4.730469-15.867188 1.238281-21.882813 5.726563-5.765625 14.957032-6.492187 21.472656-1.691406 4.386719 3.230469 6.867188 8.183594 6.808594 13.582031-.035156 3.035156 1.222656 5.960938 3.445313 8.035156 2.265625 2.109376 5.359375 3.183594 8.457031 2.917969 4.601562-.367187 9.003906 1.109375 12.417969 4.175781 6.554687 5.890626 7.308593 16.167969 1.679687 22.914063-5.304687 6.363281-14.570312 7.847656-21.550781 3.449219-5.285156-3.324219-12.230469-2.394532-16.511719 2.222656l-19.386718 20.910156c-1.25-1.703125-2.648438-3.316406-4.234376-4.785156zm-193.453125 32.195312c33.804688 0 61.75 25.582031 65.488282 58.402344h-130.980469c3.742187-32.820313 31.683593-58.402344 65.492187-58.402344zm108.265625 124.394531-2.089843 55.550781c-8.226563-2.296874-17.019532-3.515624-26.050782-3.515624-9.027344 0-17.820312 1.214843-26.046875 3.515624l-2.089843-55.550781zm-69.015625 61.1875c-3.824218 1.890625-7.4375 4.050781-10.789062 6.484375-14.625 10.609375-22.675782 24.945313-22.675782 40.367188 0 3.003906.316407 6.019531.9375 8.964844.859376 4.0625 4.847657 6.648437 8.90625 5.796874 4.0625-.855468 6.65625-4.847656 5.800782-8.90625-.410156-1.925781-.613282-3.894531-.613282-5.855468 0-22.59375 26.605469-40.972656 59.308594-40.972656 32.707032 0 59.3125 18.378906 59.3125 40.972656s-26.605468 40.972656-59.3125 40.972656c-15.707031 0-30.542968-4.265625-41.773437-12.015625-3.414063-2.359375-8.097657-1.496094-10.453125 1.917969-2.359375 3.417968-1.5 8.097656 1.917968 10.453125 4.011719 2.769531 8.382813 5.160156 13.023438 7.175781l2.242188 59.542969h-44.191407l-17.671875-216.089844h53.726563zm62.933594 100.363281-2.050781 54.53125h-40.011719l-2.054688-54.542968c7.070313 1.640625 14.492188 2.503906 22.058594 2.503906 7.585938 0 15.003906-.859375 22.058594-2.492188zm-187.410156-161.550781h53.367187l17.667969 216.082031h-40.441406zm299.261718 256.171875c0 .808594-.660156 1.464844-1.46875 1.464844h-264.878906c-.808594 0-1.46875-.65625-1.46875-1.464844v-25.054687h267.8125v25.054687zm.851563-40.089844h-40.441406l17.667969-216.082031h53.367187zm-55.519531.003907h-44.195313l2.242188-59.519531c5.164062-2.25 9.996093-4.976563 14.378906-8.15625 14.625-10.609376 22.675781-24.949219 22.675781-40.371094s-8.050781-29.757813-22.675781-40.367188c-3.351563-2.433594-6.964844-4.59375-10.789063-6.484375l2.304688-61.191406h53.726562zm110.140625-235.921875c0 2.652344-2.152344 4.804687-4.804688 4.804687h-369.15625c-2.648437 0-4.800781-2.152343-4.800781-4.804687v-26.320313c0-2.648437 2.152344-4.804687 4.800781-4.804687h369.15625c2.648438 0 4.804688 2.15625 4.804688 4.804687zm0 0"/></svg>