<?xml version="1.0" encoding="iso-8859-1"?>
<!-- Generator: Adobe Illustrator 18.0.0, SVG Export Plug-In . SVG Version: 6.00 Build 0)  -->
<!DOCTYPE svg PUBLIC "-//W3C//DTD SVG 1.1//EN" "http://www.w3.org/Graphics/SVG/1.1/DTD/svg11.dtd">
<svg version="1.1" id="Capa_1" xmlns="http://www.w3.org/2000/svg" xmlns:xlink="http://www.w3.org/1999/xlink" x="0px" y="0px"
	 viewBox="0 0 469.471 469.471" style="enable-background:new 0 0 469.471 469.471;" xml:space="preserve">
<g>
	<path d="M469.467,291.813c-0.763-19.865-2.646-40.095-5.601-60.128c-6.509-44.094-17.969-86.348-34.06-125.587
		c-0.508-1.238-1.49-2.221-2.728-2.729c-1.238-0.508-2.628-0.498-3.858,0.026c-23.748,10.119-49.315,18.336-76.082,24.464
		c-0.357-4.495-2.509-8.624-6.062-11.474c-3.893-3.123-8.917-4.293-13.765-3.215c0,0-1.891,0.413-2.502,0.541
		c-39.599,8.33-79.76,8.384-119.446,0.15c-0.916-0.181-1.974-0.42-3.125-0.679c-4.882-1.116-9.927,0.033-13.846,3.157
		c-3.928,3.13-6.181,7.805-6.181,12.837c0,2.076,0.085,4.136,0.235,6.183l-40.982-36.066c-0.994-0.876-2.288-1.323-3.621-1.236
		c-1.323,0.084-2.56,0.691-3.436,1.687l-17.093,19.426l-12.954-11.38c-2.072-1.821-5.229-1.619-7.054,0.453l-11.714,13.312
		c-14.045-3.995-27.843-8.64-41.051-13.841c-2.558-1.007-5.456,0.242-6.477,2.8c-15.166,38.029-26.023,78.798-32.271,121.171
		c-2.913,19.697-4.784,39.671-5.56,59.365c-0.001,0.031-0.002,0.063-0.003,0.095c-0.002,0.058-0.004,0.113-0.007,0.171
		c0,0.001,0,0.002,0,0.003v0.001c-0.104,2.577-0.177,4.945-0.224,7.225c-0.039,1.903,1.007,3.664,2.697,4.54
		c11.122,5.768,131.17,60.067,131.17,60.067c0.393,0.18,0.807,0.308,1.231,0.381c30.345,5.237,61.81,7.893,93.521,7.893
		s63.176-2.655,93.521-7.893c0.435-0.075,0.857-0.208,1.258-0.394c0,0,125.911-56.764,143.541-66.776
		c1.564-0.888,2.531-2.559,2.531-4.357C469.471,291.941,469.47,291.877,469.467,291.813z M408.792,253.208
		c-2.324-12.755-6.79-28.197-15.385-41.339c-0.799-1.222-2.092-2.033-3.539-2.221c-1.447-0.191-2.904,0.265-3.99,1.242
		c-35.972,32.376-115.224,38.421-152.202,39.425c1.875-2.175,3.439-4.581,4.597-7.221c2.961-6.755,3.121-14.214,0.964-21.561
		c0.552,0.462,1.099,0.93,1.664,1.377c14.552,11.527,32.732,17.875,51.193,17.875c6.022,0,12.081-0.67,18.009-1.991
		c15.333-3.416,29.049-10.96,39.953-21.738c21.814-5.436,39.812-12.671,53.493-21.522c1.954-1.263,4.352-1.587,6.573-0.894
		c2.201,0.688,3.891,2.226,4.76,4.331c4.914,11.92,7.172,24.286,8.2,32.56c0.922,7.428-2.649,14.775-9.099,18.719
		C412.345,251.253,410.609,252.24,408.792,253.208z M109.058,244.545c-0.961,1.559-1.798,3.129-2.538,4.704
		c-2.904-0.819-5.43-2.215-7.526-4.189c-10.391-9.804-6.894-30.45,7.795-46.021c14.693-15.57,35.103-20.26,45.492-10.464
		c6.133,5.785,7.555,15.874,3.943,26.788c-5.995,0.839-12.044,2.509-17.846,4.989C125.771,225.738,115.358,234.33,109.058,244.545z
		 M117.569,249.795c5.226-8.474,14.012-15.665,24.738-20.249c7.374-3.151,15.167-4.817,22.536-4.817
		c13.338,0,23.97,5.488,27.745,14.323c6.176,14.451-6.332,33.699-27.882,42.909c-7.374,3.151-15.167,4.817-22.536,4.817
		c-13.338,0-23.969-5.488-27.744-14.323C111.567,265.763,112.684,257.716,117.569,249.795z M166.786,214.782
		c1.985-7.966,1.803-15.605-0.441-22.132c10.156-3.178,23.207-2.051,35.29,3.255c21.461,9.413,33.788,28.781,27.479,43.173
		c-3.67,8.372-13.435,13.558-25.668,14.012c1.215-6.146,0.764-12.294-1.661-17.968C196.53,222.827,183.521,215.324,166.786,214.782z
		 M206.319,262.917c4.186-0.352,8.14-1.174,11.779-2.426c12.767,0.086,44.557-0.332,78.741-5.608
		c40.794-6.296,71.398-17.282,91.106-32.687c7.573,13.795,10.86,29.68,12.285,41.125c0.922,7.441-2.651,14.796-9.104,18.738
		c-21.397,13.074-74.09,33.253-187.734,23.007C204.153,285.996,205.52,270.737,206.319,262.917z M307.928,229.034
		c-5.216,1.162-10.544,1.751-15.835,1.751c-16.217,0-32.192-5.581-44.983-15.713c-12.974-10.277-22.104-24.852-25.71-41.041
		c-0.004-0.014-0.007-0.028-0.011-0.043c-0.41-1.895,0.05-3.847,1.264-5.362c1.217-1.517,3.026-2.387,4.999-2.387
		c0,0,10.794-0.214,10.85-0.216c39.891-1.548,78.495-10.822,114.851-27.615c0,0,2.416-0.911,3.34-0.911
		c2.968,0,5.591,2.106,6.237,5.009C371.622,181.525,346.948,220.342,307.928,229.034z M194.625,124.16
		c1.524-1.215,3.485-1.664,5.426-1.219c1.236,0.278,2.381,0.535,3.326,0.722c40.701,8.444,81.931,8.45,122.644,0.011
		c0.931-0.193,3.436-0.736,3.436-0.736c1.895-0.42,3.85,0.034,5.362,1.248c1.521,1.22,2.393,3.039,2.393,4.991
		c0,1.818-0.074,3.63-0.208,5.422c-5.659,2.314-11.367,4.453-17.126,6.399l-1.06-2.667c-1.021-2.566-3.929-3.82-6.493-2.8
		c-2.566,1.02-3.819,3.927-2.8,6.493l0.797,2.004c-4.397,1.318-8.819,2.536-13.267,3.642l-0.713-2.948
		c-0.649-2.683-3.351-4.335-6.035-3.684c-2.684,0.649-4.333,3.352-3.684,6.036l0.686,2.835c-5.27,1.118-10.572,2.091-15.905,2.914
		l-0.267-3.522c-0.208-2.753-2.605-4.822-5.362-4.608c-2.754,0.208-4.817,2.61-4.608,5.363l0.314,4.144
		c-5.564,0.663-11.161,1.15-16.782,1.494l1.526-6.61c0.621-2.69-1.057-5.375-3.747-5.997c-2.688-0.621-5.375,1.056-5.997,3.747
		l-2.148,9.304c-1.127,0.029-6.714,0.104-6.714,0.104c-4.989,0-9.643,2.235-12.768,6.131c-3.13,3.904-4.302,8.944-3.215,13.827
		c0.004,0.018,0.009,0.037,0.013,0.055c0.24,1.073,0.505,2.138,0.787,3.197c-12.879-13.328-20.224-31.164-20.224-50.284
		C192.212,127.206,193.091,125.381,194.625,124.16z M138.612,110.103l46.513,40.932c3.655,13.436,10.655,25.678,20.409,35.664
		c-5.639-2.464-11.408-4.136-17.092-5.045l-63.614-55.885L138.612,110.103z M101.514,118.599l71.232,62.577
		c-3.971,0.427-7.774,1.292-11.324,2.598c-0.712-0.863-1.458-1.7-2.281-2.475c-6.641-6.263-15.911-8.591-25.782-7.371
		l-45.393-39.934L101.514,118.599z M45.544,118.824c10.632,4.045,21.604,7.734,32.748,11.027l-1.136,1.291
		c-0.876,0.996-1.32,2.299-1.236,3.622c0.085,1.324,0.692,2.559,1.688,3.435l44.056,38.758c-7.813,3.066-15.515,8.189-22.148,15.219
		c-18.472,19.583-21.784,46.569-7.381,60.16c3.152,2.97,6.991,5.125,11.277,6.405c-1.126,6.123-0.536,12.129,1.82,17.644
		c5.457,12.77,19.267,20.394,36.939,20.394c8.709,0,17.86-1.944,26.466-5.622c11.468-4.901,20.747-12.358,26.938-20.818
		c-0.833,9.52-1.819,23.18-2.35,39.101c-0.088,2.639,1.891,4.891,4.519,5.144c23.726,2.28,44.934,3.262,63.896,3.261
		c76.774-0.002,116.454-16.103,134.7-27.251c9.337-5.704,14.687-16.135,13.953-26.912c3.173-1.575,6.158-3.216,8.908-4.899
		c9.789-5.987,15.208-17.166,13.804-28.482c-1.104-8.884-3.541-22.192-8.88-35.14c-1.992-4.829-6.009-8.497-11.021-10.063
		c-5.067-1.583-10.531-0.839-14.986,2.042c-9.888,6.398-22.317,11.92-37.065,16.488c0.243-0.37,0.5-0.726,0.738-1.101
		c11.821-18.597,15.693-40.685,10.901-62.194c-0.654-2.936-2.053-5.521-3.966-7.593c18.633-5.069,36.621-11.133,53.718-18.174
		c14.795,37.167,25.397,77.035,31.531,118.581c1.928,13.079,3.381,26.241,4.366,39.327
		c-63.792,35.242-145.211,54.635-229.718,54.635c-78.838,0-156-17.15-217.736-48.32c0.96-15.204,2.562-30.504,4.801-45.642
		C21.57,193.244,31.609,154.812,45.544,118.824z M319.786,353.79c-29.582,5.066-60.251,7.635-91.166,7.635
		c-30.921,0-61.594-2.569-91.181-7.637l-26.866-12.302c37.757,8.427,77.691,12.849,118.047,12.849
		c40.177,0,79.673-4.319,117.013-12.567L319.786,353.79z M228.62,344.335c-79.194,0-156.655-17.279-218.542-48.704
		c0.04-1.329,0.206-5.388,0.229-5.949c63.138,31.043,138.426,47.424,218.314,47.424c84.366,0,165.827-19.007,230.438-53.632
		c0.104,1.897,0.205,3.793,0.288,5.684C395.385,324.758,313.594,344.335,228.62,344.335z"/>
	<path d="M176.283,263.676c2.135,0,4.211-0.425,6.171-1.262c8.366-3.576,12.087-13.703,8.295-22.576
		c-2.822-6.604-9.054-10.87-15.878-10.87c-2.135,0-4.212,0.425-6.171,1.262c-4.126,1.763-7.247,5.134-8.788,9.493
		c-1.489,4.21-1.314,8.856,0.492,13.083C163.227,259.409,169.459,263.676,176.283,263.676z M169.34,243.057
		c0.598-1.69,1.766-2.98,3.29-3.631c0.711-0.304,1.465-0.458,2.241-0.458c2.771,0,5.456,1.929,6.683,4.8
		c1.625,3.803,0.266,8.042-3.029,9.451c-0.71,0.303-1.465,0.458-2.241,0.458c-2.771,0-5.457-1.929-6.684-4.8
		C168.782,246.962,168.69,244.896,169.34,243.057z"/>
	<path d="M221.885,264.801c-0.997-2.576-3.896-3.855-6.468-2.857c-2.575,0.997-3.855,3.893-2.858,6.468l12,31
		c0.768,1.982,2.659,3.196,4.664,3.196c0.601,0,1.211-0.109,1.804-0.339c2.575-0.997,3.855-3.893,2.858-6.468L221.885,264.801z"/>
	<path d="M269.241,301.987c0.601,0,1.211-0.109,1.804-0.339c2.575-0.997,3.855-3.893,2.858-6.468l-12-31
		c-0.997-2.576-3.896-3.854-6.468-2.857c-2.575,0.997-3.855,3.893-2.858,6.468l12,31
		C265.345,300.773,267.236,301.987,269.241,301.987z"/>
	<path d="M305.877,296.292c0.768,1.982,2.659,3.196,4.664,3.196c0.601,0,1.211-0.109,1.804-0.339
		c2.575-0.997,3.855-3.893,2.858-6.468l-12-31c-0.997-2.576-3.896-3.854-6.468-2.857c-2.575,0.997-3.855,3.893-2.858,6.468
		L305.877,296.292z"/>
	<path d="M345.577,287.591c0.768,1.982,2.659,3.196,4.664,3.196c0.601,0,1.211-0.109,1.804-0.339
		c2.575-0.997,3.855-3.893,2.858-6.468l-12-31c-0.997-2.576-3.896-3.855-6.468-2.857c-2.575,0.997-3.855,3.893-2.858,6.468
		L345.577,287.591z"/>
	<path d="M379.204,275.161c0.768,1.982,2.659,3.196,4.664,3.196c0.601,0,1.211-0.109,1.804-0.339
		c2.575-0.997,3.855-3.893,2.858-6.468l-12-31c-0.997-2.576-3.896-3.855-6.468-2.857c-2.575,0.997-3.855,3.893-2.858,6.468
		L379.204,275.161z"/>
	<path d="M298.714,176.606c-0.823-2.636-3.63-4.106-6.264-3.282c-2.636,0.823-4.104,3.627-3.281,6.263l8.585,27.482
		c0.668,2.14,2.642,3.511,4.771,3.511c0.494,0,0.997-0.074,1.493-0.229c2.636-0.823,4.104-3.627,3.281-6.263L298.714,176.606z"/>
	<path d="M269.395,177.01c-2.762,0-5,2.239-5,5v20c0,2.761,2.238,5,5,5s5-2.239,5-5v-20
		C274.395,179.249,272.156,177.01,269.395,177.01z"/>
	<path d="M247.715,173.422c-2.686-0.64-5.384,1.013-6.026,3.699l-3.034,12.673c-0.644,2.686,1.013,5.384,3.698,6.027
		c0.392,0.093,0.782,0.138,1.168,0.138c2.26,0,4.31-1.542,4.858-3.837l3.034-12.673C252.057,176.763,250.4,174.065,247.715,173.422z
		"/>
	<path d="M322.25,166.482c-1.234-2.47-4.237-3.472-6.708-2.236c-2.47,1.235-3.471,4.238-2.235,6.708l10,20
		c0.876,1.752,2.642,2.765,4.476,2.765c0.751,0,1.515-0.17,2.232-0.529c2.47-1.235,3.471-4.238,2.235-6.708L322.25,166.482z"/>
	<path d="M342.709,155.192c-1.571-2.27-4.686-2.837-6.957-1.265c-2.271,1.572-2.837,4.687-1.266,6.957l9,13
		c0.971,1.402,2.53,2.154,4.116,2.154c0.981,0,1.973-0.289,2.841-0.89c2.271-1.572,2.837-4.687,1.266-6.957L342.709,155.192z"/>
	<path d="M214.12,155.855c1.837,0,3.605-1.016,4.479-2.772l5.81-11.665c1.231-2.472,0.226-5.474-2.246-6.705
		c-2.475-1.231-5.476-0.226-6.705,2.247l-5.81,11.665c-1.231,2.472-0.226,5.474,2.246,6.705
		C212.611,155.686,213.371,155.855,214.12,155.855z"/>
	<path d="M135.46,197.6c0.034,0.001,4.156-0.044,6.453,2.297c1.416,1.443,2.028,3.756,1.819,6.876
		c-0.184,2.755,1.901,5.138,4.656,5.322c0.113,0.008,0.226,0.011,0.338,0.011c2.609,0,4.808-2.025,4.984-4.667
		c0.506-7.582-2.255-12.095-4.66-14.546c-5.423-5.525-13.196-5.323-14.067-5.281c-2.759,0.131-4.888,2.474-4.756,5.232
		S132.687,197.733,135.46,197.6z"/>
	<path d="M49.847,242.78c0.418,0,0.84-0.014,1.261-0.033c1.47,3.053,5.167,10.391,5.426,11.099
		c-0.958-0.106-1.925-0.162-2.897-0.162c-6.559,0-12.855,2.419-17.731,6.813c-2.052,1.848-2.217,5.01-0.368,7.061
		c5.018,5.568,12.195,8.762,19.694,8.762c5.341,0,10.495-1.629,14.863-4.598c2.513,2.921,5.155,5.727,7.91,8.418
		c-4.662,0.919-9.02,3.071-12.606,6.302c-0.985,0.888-1.577,2.13-1.646,3.455c-0.069,1.325,0.391,2.622,1.278,3.607
		c5.018,5.568,12.196,8.762,19.694,8.761c5.473,0,10.75-1.706,15.184-4.815c20.418,12.905,44.59,20.386,70.479,20.386
		c2.762,0,5-2.239,5-5s-2.238-5-5-5c-41.098,0-77.527-20.377-99.713-51.558c8.392-8.46,10.287-21.874,3.8-32.485
		c-0.691-1.131-1.804-1.942-3.093-2.253c-1.293-0.311-2.649-0.097-3.781,0.595c-4.433,2.71-7.781,6.526-9.922,10.875
		c-1.576-3.727-2.969-7.548-4.175-11.451c11.553-4.441,18.778-16.576,16.6-29.228c-0.468-2.721-3.048-4.546-5.776-4.08
		c-6.185,1.065-11.671,4.213-15.682,8.942c-0.289-3.041-0.467-6.114-0.528-9.214c4.103-4.759,6.367-10.753,6.406-17.105
		c0.043-7.078-2.673-13.75-7.647-18.785c-1.938-1.964-5.104-1.984-7.07-0.043c-5.036,4.974-7.833,11.612-7.877,18.69
		c-0.039,6.35,2.149,12.367,6.188,17.175c0.169,9.542,1.347,18.842,3.443,27.794c-3.296-1.465-6.942-2.275-10.768-2.275
		c-0.938,0-1.89,0.05-2.827,0.15c-2.746,0.292-4.735,2.755-4.443,5.5C24.957,232.591,36.274,242.78,49.847,242.78z M77.523,290.611
		c4.106-1.486,8.881-1.229,12.808,0.673C86.224,292.769,81.448,292.512,77.523,290.611z M68.148,234.946
		c0.712,4.379-0.378,8.896-3.009,12.47C64.427,243.036,65.517,238.519,68.148,234.946z M55.347,204.849
		c1.294-1.833,2.912-3.353,4.762-4.502c-0.954,4.342-3.64,8.145-7.412,10.496C53.161,208.715,54.053,206.681,55.347,204.849z
		 M48.029,264.665c4.104-1.485,8.881-1.229,12.808,0.673C56.732,266.824,51.956,266.566,48.029,264.665z M43.266,164.368
		c0.839,2.014,1.271,4.196,1.258,6.444c-0.014,2.248-0.474,4.424-1.337,6.428c-0.838-2.014-1.271-4.196-1.258-6.444
		S42.402,166.372,43.266,164.368z M45.332,232.155c-4.322-1.226-7.937-4.172-10.025-8.102
		C39.628,225.279,43.243,228.226,45.332,232.155z"/>
</g>
<g>
</g>
<g>
</g>
<g>
</g>
<g>
</g>
<g>
</g>
<g>
</g>
<g>
</g>
<g>
</g>
<g>
</g>
<g>
</g>
<g>
</g>
<g>
</g>
<g>
</g>
<g>
</g>
<g>
</g>
</svg>
