<?xml version="1.0" encoding="iso-8859-1"?>
<!-- Generator: Adobe Illustrator 18.0.0, SVG Export Plug-In . SVG Version: 6.00 Build 0)  -->
<!DOCTYPE svg PUBLIC "-//W3C//DTD SVG 1.1//EN" "http://www.w3.org/Graphics/SVG/1.1/DTD/svg11.dtd">
<svg version="1.1" id="Capa_1" xmlns="http://www.w3.org/2000/svg" xmlns:xlink="http://www.w3.org/1999/xlink" x="0px" y="0px"
	 viewBox="0 0 462.67 462.67" style="enable-background:new 0 0 462.67 462.67;" xml:space="preserve">
<g>
	<path d="M404.834,146.941c-3.325-24.7-21.293-47.488-51.451-64.879c-32.681-18.846-76.026-29.225-122.05-29.225
		s-89.369,10.379-122.05,29.225c-30.158,17.391-48.127,40.18-51.451,64.88C20.527,175.818,0,212.931,0,251.663
		c0,42.623,24.322,82.558,68.487,112.447c43.567,29.485,101.399,45.723,162.843,45.723c61.447,0,119.282-16.238,162.851-45.723
		c44.166-29.889,68.489-69.824,68.489-112.447C462.67,212.93,442.142,175.817,404.834,146.941z M393.529,233.872
		c0,55.896-72.763,101.37-162.199,101.37c-89.432,0-162.19-45.475-162.19-101.37c0-5.352,0.697-10.669,2.032-15.911
		c8.734,18.722,21.435,35.901,37.707,50.647c32.801,29.725,76.289,46.095,122.451,46.095c46.167,0,89.657-16.37,122.46-46.095
		c16.273-14.746,28.973-31.925,37.708-50.647C392.833,223.203,393.529,228.521,393.529,233.872z M76.819,172.393
		c0-51.005,69.313-92.5,154.511-92.5c85.202,0,154.52,41.495,154.52,92.5c0,6.228-1.066,12.453-3.151,18.514
		c-7.951,10.653-19.5,20.499-34.31,29.039c-31.187,17.984-72.757,27.888-117.055,27.888s-85.868-9.904-117.055-27.888
		c-0.283-0.163-0.556-0.33-0.837-0.494c1.481-3.143,2.277-6.669,2.277-10.328c0-12.131-8.748-22-19.5-22
		c-5.377,0-10.391,2.482-13.997,6.667c-0.787-0.961-1.541-1.929-2.268-2.903C77.88,184.832,76.819,178.614,76.819,172.393z
		 M104.877,214.043c-5.933-4.045-11.208-8.325-15.793-12.799c1.789-2.568,4.39-4.121,7.136-4.121c5.238,0,9.5,5.383,9.5,12
		C105.72,210.855,105.426,212.52,104.877,214.043z M347.075,261.198c-30.96,28.055-72.065,43.505-115.745,43.505
		c-43.676,0-84.778-15.45-115.736-43.505c-18.982-17.202-32.774-37.912-40.656-60.525c8.553,10.272,20.081,19.709,34.346,27.935
		c32.681,18.846,76.025,29.225,122.05,29.225s89.369-10.379,122.05-29.225c14.267-8.227,25.796-17.665,34.349-27.939
		C379.852,223.284,366.059,243.996,347.075,261.198z M114.279,90.725c31.187-17.983,72.757-27.888,117.055-27.888
		s85.868,9.904,117.055,27.888c30.319,17.485,47.018,40.43,47.018,64.61c0,2.173-0.14,4.336-0.408,6.486
		c-3.841-23.814-20.637-45.753-48.264-62.638c-30.902-18.888-71.888-29.29-115.404-29.29c-43.513,0-84.495,10.402-115.397,29.29
		C88.306,116.07,71.51,138.01,67.67,161.825c-0.268-2.151-0.408-4.315-0.408-6.49C67.262,131.155,83.96,108.209,114.279,90.725z
		 M231.33,399.833C109.288,399.833,10,333.364,10,251.663c0-33.246,16.736-65.395,47.348-91.453
		c0.491,15.016,3.245,29.673,8.101,43.646c-4.169,9.716-6.309,19.8-6.309,30.016c0,30.181,18.213,58.39,51.283,79.431
		c32.371,20.596,75.31,31.939,120.907,31.939c45.602,0,88.543-11.343,120.915-31.939c33.071-21.041,51.284-49.25,51.284-79.431
		c0-10.216-2.139-20.3-6.309-30.016c4.856-13.973,7.61-28.63,8.1-43.647c30.613,26.058,47.349,58.208,47.349,91.454
		C452.67,333.364,353.377,399.833,231.33,399.833z"/>
	<path d="M114.012,184.69c3.893,0.573,7.987,0.863,12.168,0.863s8.275-0.291,12.168-0.863c1.4-0.206,2.647-0.996,3.433-2.174
		c2.551-3.827,3.899-8.392,3.899-13.203c0-12.131-8.748-22-19.5-22s-19.5,9.869-19.5,22c0,4.811,1.349,9.376,3.899,13.203
		C111.364,183.694,112.611,184.484,114.012,184.69z M126.18,157.313c5.238,0,9.5,5.383,9.5,12c0,2.065-0.409,4.033-1.194,5.793
		c-5.369,0.595-11.242,0.595-16.611,0c-0.785-1.76-1.194-3.728-1.194-5.793C116.68,162.696,120.941,157.313,126.18,157.313z"/>
	<path d="M306.46,171.21c5.275,0.776,10.83,1.17,16.508,1.17c5.677,0,11.231-0.394,16.508-1.17c1.399-0.206,2.646-0.996,3.432-2.173
		c3.311-4.966,5.061-10.899,5.061-17.16c0-15.687-11.215-28.448-25-28.448s-25,12.762-25,28.448c0,6.261,1.75,12.194,5.061,17.16
		C303.813,170.214,305.061,171.004,306.46,171.21z M322.968,133.429c8.271,0,15,8.276,15,18.448c0,3.508-0.786,6.839-2.287,9.753
		c-8.186,0.997-17.242,0.996-25.426,0c-1.502-2.915-2.287-6.245-2.287-9.754C307.968,141.705,314.696,133.429,322.968,133.429z"/>
	<path d="M232.511,162.938l28.878,2.661c0.153,0.014,0.307,0.021,0.459,0.021c1.163,0,2.295-0.406,3.196-1.155
		c1.02-0.848,1.661-2.066,1.782-3.387c1.113-12.08-6.692-22.709-17.399-23.696c-0.534-0.049-1.075-0.074-1.61-0.074
		c-10.242,0-18.765,8.681-19.825,20.193C227.737,160.25,229.761,162.685,232.511,162.938z M248.509,147.34
		c3.811,0.351,6.839,3.515,7.958,7.763l-17.191-1.584C241.147,149.571,244.699,146.982,248.509,147.34z"/>
	<path d="M343.599,180.732c-5.358,0.162-10.275,2.704-13.847,7.157c-3.384,4.219-5.151,9.697-4.979,15.423
		c0.082,2.709,2.304,4.849,4.995,4.849c0.051,0,0.103,0,0.154-0.002l28.986-0.877c1.325-0.04,2.581-0.605,3.489-1.571
		c0.909-0.965,1.397-2.252,1.357-3.578C363.385,189.93,354.527,180.396,343.599,180.732z M352.731,197.464l-17.248,0.522
		c0.472-1.416,1.168-2.716,2.07-3.841c1.709-2.131,3.964-3.345,6.348-3.417l0.229-0.003
		C347.838,190.724,351.128,193.485,352.731,197.464z"/>
	<path d="M168.452,179.551c0.257,3.584,1.494,7.057,3.577,10.043c0.78,1.118,1.982,1.869,3.33,2.08
		c3.435,0.536,7.066,0.807,10.795,0.807c1.891,0,3.821-0.071,5.739-0.21c5.341-0.39,10.433-1.276,15.133-2.633
		c1.307-0.377,2.403-1.27,3.037-2.473c1.757-3.336,2.543-7.064,2.273-10.78c-0.818-11.342-11.292-20.099-23.449-19.217
		C176.792,158.045,167.625,168.087,168.452,179.551z M189.612,167.14c6.601-0.473,12.325,4.065,12.75,9.966
		c0.087,1.188-0.046,2.382-0.385,3.529c-3.396,0.828-7.022,1.386-10.812,1.662c-4.089,0.298-8.152,0.232-11.927-0.191
		c-0.455-1.041-0.732-2.147-0.813-3.272C177.996,172.865,183.014,167.619,189.612,167.14z"/>
	<path d="M150.438,131.684c0.78,1.119,1.983,1.87,3.331,2.081c3.162,0.493,6.507,0.744,9.939,0.744c1.74,0,3.517-0.065,5.282-0.194
		c4.914-0.358,9.601-1.174,13.93-2.424c1.307-0.377,2.403-1.271,3.037-2.474c1.646-3.124,2.381-6.613,2.128-10.09
		c-0.766-10.607-10.552-18.803-21.906-17.973c-11.299,0.821-19.861,10.212-19.088,20.933
		C147.332,125.641,148.489,128.891,150.438,131.684z M166.903,111.327c5.812-0.419,10.835,3.557,11.207,8.722
		c0.07,0.954-0.022,1.913-0.271,2.841c-3.014,0.72-6.226,1.207-9.577,1.451c-3.624,0.265-7.231,0.214-10.588-0.146
		c-0.34-0.836-0.544-1.714-0.609-2.627C156.688,116.342,161.102,111.748,166.903,111.327z"/>
	<path d="M288.923,190.951c-12.337,0-22,6.668-22,15.181s9.663,15.181,22,15.181s22-6.668,22-15.181S301.26,190.951,288.923,190.951
		z M288.923,211.313c-7.444,0-12-3.354-12-5.181s4.556-5.181,12-5.181s12,3.354,12,5.181S296.367,211.313,288.923,211.313z"/>
	<path d="M183.761,212.075c-1.091,0-2.186,0.118-3.255,0.35c-12.108,2.632-15.662,14.177-15.849,19.914
		c-0.044,1.34,0.453,2.643,1.378,3.613c0.926,0.971,2.202,1.529,3.543,1.549l33,0.5c0.025,0,0.051,0,0.076,0
		c1.736,0,3.352-0.901,4.262-2.385c0.923-1.504,0.984-3.384,0.162-4.946C206.074,228.768,196.898,212.075,183.761,212.075z
		 M175.982,227.597c1.09-2.275,3.067-4.623,6.648-5.401c0.377-0.082,0.746-0.122,1.13-0.122c3.062,0,6.406,2.659,9.188,5.78
		L175.982,227.597z"/>
	<path d="M252.524,117.504c0.025,0,0.051,0,0.076,0l33-0.5c1.341-0.021,2.617-0.579,3.543-1.549
		c0.925-0.971,1.422-2.273,1.378-3.613c-0.187-5.737-3.74-17.282-15.849-19.915c-1.068-0.232-2.164-0.35-3.255-0.35
		c-13.138,0-22.313,16.693-23.317,18.597c-0.822,1.562-0.761,3.442,0.162,4.946C249.173,116.603,250.788,117.504,252.524,117.504z
		 M271.418,101.577c0.384,0,0.753,0.04,1.13,0.122c3.618,0.787,5.597,3.125,6.68,5.401l-16.997,0.258
		C265.012,104.236,268.356,101.577,271.418,101.577z"/>
</g>
<g>
</g>
<g>
</g>
<g>
</g>
<g>
</g>
<g>
</g>
<g>
</g>
<g>
</g>
<g>
</g>
<g>
</g>
<g>
</g>
<g>
</g>
<g>
</g>
<g>
</g>
<g>
</g>
<g>
</g>
</svg>
