<svg height="511pt" viewBox="0 0 511 511.99963" width="511pt" xmlns="http://www.w3.org/2000/svg"><path d="m146.359375 379.558594h3.15625c30.792969 0 55.84375-25.050782 55.84375-55.84375v-3.15625c0-14.253906 11.59375-25.847656 25.847656-25.847656h3.15625c30.792969 0 55.847657-25.050782 55.847657-55.847657v-3.15625c0-14.25 11.59375-25.84375 25.84375-25.84375h3.160156c30.792968 0 55.84375-25.054687 55.84375-55.847656v-3.15625c0-14.25 11.59375-25.847656 25.847656-25.847656h3.15625v-30h-3.15625c-30.792969 0-55.84375 25.054687-55.84375 55.847656v3.15625c0 14.25-11.597656 25.847656-25.847656 25.847656h-3.160156c-30.792969 0-55.84375 25.050781-55.84375 55.84375v3.15625c0 14.253907-11.59375 25.847657-25.847657 25.847657h-3.15625c-30.792969 0-55.84375 25.054687-55.84375 55.847656v3.15625c0 14.25-11.597656 25.847656-25.847656 25.847656h-3.15625c-30.796875 0-55.847656 25.050781-55.847656 55.84375h30c0-14.253906 11.59375-25.847656 25.847656-25.847656zm0 0"/><path d="m490.765625 125.90625c19.539063-28.667969 17.261719-68.835938-9.039063-95.136719-26.300781-26.300781-66.464843-28.578125-95.136718-9.039062-41-31.617188-100.3125-28.84375-138.199219 9.039062l-217.121094 217.125c-37.804687 37.804688-40.71875 97.117188-9.042969 138.195313-19.535156 28.671875-17.257812 68.835937 9.042969 95.136718 26.300781 26.300782 66.464844 28.582032 95.136719 9.042969 40.996094 31.617188 100.3125 28.84375 138.199219-9.042969l217.121093-217.121093c37.804688-37.804688 40.71875-97.121094 9.039063-138.199219zm-438.285156 143.199219 217.121093-217.121094c25.871094-25.867187 65.546876-28.703125 94.398438-9.546875l-321.066406 321.066406c-19.136719-28.824218-16.347656-68.503906 9.546875-94.398437zm0 190.910156c-17.585938-17.585937-17.585938-46.046875 0-63.636719l344.394531-344.394531c17.546875-17.546875 46.09375-17.546875 63.640625 0 17.585937 17.585937 17.585937 46.046875 0 63.636719l-344.398437 344.394531c-17.542969 17.546875-46.09375 17.542969-63.636719 0zm408.035156-217.121094-217.125 217.121094c-25.867187 25.867187-65.542969 28.703125-94.394531 9.546875l321.066406-321.066406c19.136719 28.820312 16.347656 68.503906-9.546875 94.398437zm0 0"/></svg>