<?xml version="1.0" encoding="iso-8859-1"?>
<!-- Generator: Adobe Illustrator 19.0.0, SVG Export Plug-In . SVG Version: 6.00 Build 0)  -->
<svg version="1.1" id="Capa_1" xmlns="http://www.w3.org/2000/svg" xmlns:xlink="http://www.w3.org/1999/xlink" x="0px" y="0px"
	 viewBox="0 0 512 512" style="enable-background:new 0 0 512 512;" xml:space="preserve">
<g>
	<g>
		<rect x="149.67" y="138.74" width="15" height="15"/>
	</g>
</g>
<g>
	<g>
		<rect x="220.67" y="203.73" width="15" height="15"/>
	</g>
</g>
<g>
	<g>
		<rect x="57.721" y="293.14" width="15" height="15"/>
	</g>
</g>
<g>
	<g>
		<rect x="87.72" y="338.82" width="15" height="15"/>
	</g>
</g>
<g>
	<g>
		<rect x="308.669" y="174.29" transform="matrix(0.9987 -0.0504 0.0504 0.9987 -8.7604 16.166)" width="15" height="15"/>
	</g>
</g>
<g>
	<g>
		<rect x="346.546" y="253.877" transform="matrix(0.9987 -0.0504 0.0504 0.9987 -12.7245 18.1777)" width="15" height="15"/>
	</g>
</g>
<g>
	<g>
		<rect x="444.995" y="334.536" transform="matrix(0.9987 -0.0505 0.0505 0.9987 -16.696 23.2881)" width="15" height="15"/>
	</g>
</g>
<g>
	<g>
		<rect x="394.052" y="410.067" transform="matrix(0.9987 -0.0504 0.0504 0.9987 -20.5351 20.769)" width="15" height="15"/>
	</g>
</g>
<g>
	<g>
		<rect x="255.978" y="86.296" transform="matrix(0.9987 -0.0504 0.0504 0.9987 -4.3925 13.3985)" width="15" height="15"/>
	</g>
</g>
<g>
	<g>
		<path d="M431.672,142.917C377.733,66.004,313.704,21.892,256,21.892c-57.704,0-121.733,44.112-175.672,121.025
			C30.78,213.572,0,297.843,0,362.844c0,39.61,9.893,68.701,30.243,88.933c26.846,26.69,69.231,34.98,120.198,37.399v0.932h211.117
			v-0.939c50.963-2.419,93.355-10.704,120.198-37.391C502.107,431.545,512,402.455,512,362.844
			C512,297.843,481.22,213.572,431.672,142.917z M346.559,474.713c-19.317,0.523-39.82,0.411-61.099,0.287
			c-4.097-0.024-8.263-0.047-12.46-0.067v-26.475h-15v26.431c-0.667,0-1.332-0.003-2-0.003c-9.975,0-19.881,0.058-29.46,0.113
			c-21.279,0.122-41.782,0.234-61.099-0.289v-55.568h22.226v-15h-22.226v-12.093H203v-15h-37.559v-78.592
			c0-2.463,2.004-4.467,4.467-4.467h172.184c2.463,0,4.467,2.004,4.467,4.467V474.713z M471.182,441.14
			c-23.331,23.196-62.252,30.713-109.623,33.014V298.457c0-10.734-8.732-19.467-19.467-19.467H169.908
			c-10.734,0-19.467,8.733-19.467,19.467v141.797c-22.294-2.273-38.894-6.513-51.766-13.197l-6.914,13.312
			c14.889,7.732,33.673,12.526,58.68,14.958v18.825c-47.371-2.3-86.292-9.816-109.623-33.011C23.445,423.867,15,398.256,15,362.844
			c0-62.081,29.738-143.051,77.609-211.314C143.701,78.676,203.254,36.892,256,36.892c52.746,0,112.299,41.784,163.391,114.638
			C467.262,219.793,497,300.764,497,362.844C497,398.256,488.555,423.867,471.182,441.14z"/>
	</g>
</g>
<g>
	<g>
		<path d="M356.266,112.291l-10.521,10.691c28.372,27.919,54.62,66.639,73.909,109.027l13.652-6.213
			C413.274,181.777,385.914,141.467,356.266,112.291z"/>
	</g>
</g>
<g>
	<g>
		<path d="M306.709,75.388l-6.813,13.363c10.351,5.277,20.891,12.359,31.327,21.048l9.598-11.527
			C329.529,88.87,318.051,81.17,306.709,75.388z"/>
	</g>
</g>
<g>
	<g>
		<rect x="316.5" y="349.31" width="15" height="103.33"/>
	</g>
</g>
<g>
	<g>
		<rect x="316.5" y="310.64" width="15" height="28.677"/>
	</g>
</g>
<g>
</g>
<g>
</g>
<g>
</g>
<g>
</g>
<g>
</g>
<g>
</g>
<g>
</g>
<g>
</g>
<g>
</g>
<g>
</g>
<g>
</g>
<g>
</g>
<g>
</g>
<g>
</g>
<g>
</g>
</svg>
