<svg height="512pt" viewBox="0 -52 512.00019 512" width="512pt" xmlns="http://www.w3.org/2000/svg"><path d="m497.183594 304.386719h-13.359375c-1.710938-28.128907-11.867188-59.296875-28.980469-88.585938-6.601562-11.296875-14.238281-21.902343-22.742188-31.765625 1.238282-6.492187 1.804688-13.070312 1.636719-19.621094-.425781-16.628906 4.96875-31.90625 15.183594-43.007812 2.625-2.851562 3.90625-6.761719 3.519531-10.726562-.359375-3.734376-2.125-7.230469-4.964844-9.84375l-1.460937-1.34375 18.25-19.835938c12.324219 8.347656 29.28125 6.648438 39.65625-4.632812 5.53125-6.011719 8.390625-13.820313 8.050781-21.988282-.339844-8.164062-3.839844-15.707031-9.851562-21.238281-4.644532-4.273437-10.476563-6.972656-16.636719-7.804687-1.339844-6.070313-4.511719-11.65625-9.15625-15.925782-12.414063-11.421875-31.808594-10.617187-43.230469 1.800782-9.925781 10.785156-10.613281 26.847656-2.476562 38.363281l-18.484375 20.089843-1.460938-1.34375c-6.082031-5.59375-15.332031-5.476562-20.617187.265626-8.324219 9.050781-19.605469 15.140624-32.617188 17.609374-3.800781.722657-6.296875 4.390626-5.574218 8.191407.71875 3.800781 4.390624 6.296875 8.1875 5.578125 15.933593-3.023438 29.832031-10.546875 40.203124-21.761719.167969 0 .539063.070313.929688.429687l6.617188 6.089844.902343.828125 29.28125 26.941407c.390625.363281.492188.726562.507813.894531-12.617188 13.78125-19.28125 32.503906-18.765625 52.730469.542969 21.222656-7.925781 42.9375-23.230469 59.574218-14.679688 15.957032-33.972656 25.855469-54.320312 27.871094-20.054688 1.992188-38.726563-3.941406-52.59375-16.699219-28.855469-26.546875-27.847657-74.761719 2.246093-107.472656 10.054688-10.925781 22.523438-19.167969 36.0625-23.835937 3.660157-1.261719 5.601563-5.25 4.339844-8.90625-1.261719-3.660157-5.25-5.605469-8.90625-4.34375-11.265625 3.886718-21.875 9.894531-31.261719 17.628906-11.71875-1.71875-23.617187-2.609375-35.585937-2.609375-.238281 0-.480469 0-.71875 0-39.046875.117187-77.640625 9.582031-111.601563 27.378906-28.304687 14.832031-52.164062 34.40625-70.914062 58.175781-18.515625 23.476563-32.300782 51.640625-39.859375 81.445313-.371094 1.457031-2.164063 11.308593-3.492188 19.167969-.890625 5.296874-1.527343 9.242187-1.941406 12.242187h-13.710937c-7.851563 0-14.242188 6.390625-14.242188 14.242187v26.839844c0 7.855469 6.390625 14.242188 14.242188 14.242188h9.890624l4.199219 17.988281c4.292969 18.386719 20.480469 31.226563 39.363281 31.226563h42.660157c3.871093 0 7.007812-3.136719 7.007812-7.003907 0-3.871093-3.136719-7.007812-7.007812-7.007812h-42.660157c-12.335937 0-22.910156-8.390625-25.714843-20.402344l-3.453125-14.800781h434.375l-3.453125 14.800781c-2.804688 12.011719-13.378907 20.402344-25.714844 20.402344h-300.09375c-3.871094 0-7.007813 3.136719-7.007813 7.007812 0 3.867188 3.136719 7.003907 7.007813 7.003907h300.089844c18.882812 0 35.070312-12.839844 39.363281-31.226563l4.199219-17.988281h9.890625c7.855468 0 14.242187-6.390625 14.242187-14.242188v-26.839844c.003907-7.855468-6.386719-14.246093-14.242187-14.246093zm-61.480469-214.382813-13.253906-12.195312 22.777343-24.753906c1.273438-1.386719 1.9375-3.226563 1.839844-5.109376-.097656-1.878906-.949218-3.640624-2.359375-4.886718l-.339843-.292969c-6.710938-6.195313-7.140626-16.691406-.957032-23.410156 3-3.261719 7.089844-5.15625 11.511719-5.339844 4.445313-.199219 8.660156 1.363281 11.917969 4.363281 3.449218 3.171875 5.398437 7.683594 5.351562 12.378906-.023437 1.980469.800782 3.882813 2.261719 5.226563s3.417969 2.011719 5.398437 1.820313c4.679688-.4375 9.332032 1.128906 12.78125 4.304687 3.257813 2.996094 5.15625 7.085937 5.339844 11.511719.183594 4.421875-1.363281 8.65625-4.363281 11.914062-6.191406 6.726563-16.703125 7.164063-23.421875.980469-.421875-.386719-.832031-.804687-1.21875-1.246094-1.316406-1.488281-3.199219-2.347656-5.183594-2.367187-1.960937 0-3.882812.800781-5.226562 2.261718zm-388.734375 186.425782c7.082031-27.917969 19.972656-54.273438 37.28125-76.21875 17.519531-22.210938 39.863281-40.527344 66.414062-54.441407 31.976563-16.753906 68.332032-25.667969 105.140626-25.777343 7.855468-.023438 15.6875.367187 23.453124 1.140624-33.054687 38.335938-32.941406 93.617188.839844 124.699219 14.734375 13.558594 33.824219 20.78125 54.488282 20.78125 2.960937 0 5.957031-.148437 8.976562-.449219 23.777344-2.355468 46.238281-13.839843 63.25-32.328124 9.070312-9.855469 16.058594-21.285157 20.648438-33.414063 5.582031 7.117187 10.703124 14.605469 15.285156 22.445313 15.851562 27.132812 25.324218 55.789062 27.046875 81.519531h-427.671875c1.410156-9.476563 4.34375-25.765625 4.847656-27.957031zm450.445312 69.042968c0 .125-.101562.226563-.230468.226563h-482.941406c-.125 0-.226563-.101563-.226563-.226563v-26.839844c0-.128906.101563-.230468.226563-.230468h482.941406c.128906 0 .230468.105468.230468.230468zm0 0"/><path d="m215.914062 18.394531c.171876-.316406.65625-.609375 1.011719-.621093 3.867188-.132813 6.894531-3.375 6.765625-7.242188-.132812-3.867188-3.417968-6.898438-7.242187-6.765625-5.3125.183594-10.214844 3.183594-12.792969 7.835937-7.304688 13.183594-.632812 24.210938 4.726562 33.070313 4.28125 7.074219 6.792969 11.707031 5.609376 16.347656-.480469 1.867188-1.90625 3.535157-3.183594 3.714844-3.832032.535156-6.507813 4.078125-5.96875 7.910156.488281 3.503907 3.488281 6.035157 6.929687 6.035157.320313 0 .648438-.019532.980469-.066407 6.953125-.972656 12.910156-6.648437 14.820312-14.125 2.722657-10.671875-2.546874-19.382812-7.195312-27.070312-5.003906-8.265625-7.675781-13.226563-4.460938-19.023438zm0 0"/><path d="m257.238281 18.394531c.175781-.316406.65625-.609375 1.015625-.621093 3.867188-.132813 6.894532-3.375 6.765625-7.242188-.132812-3.867188-3.386719-6.898438-7.242187-6.765625-5.3125.183594-10.214844 3.183594-12.792969 7.835937-7.304687 13.183594-.632813 24.210938 4.726563 33.070313 4.277343 7.074219 6.792968 11.707031 5.605468 16.347656-.476562 1.871094-1.902344 3.535157-3.183594 3.714844-3.832031.535156-6.503906 4.078125-5.96875 7.910156.488282 3.503907 3.492188 6.035157 6.929688 6.035157.324219 0 .652344-.019532.980469-.066407 6.957031-.972656 12.914062-6.652343 14.824219-14.125 2.722656-10.671875-2.546876-19.382812-7.195313-27.070312-5.003906-8.265625-7.675781-13.226563-4.464844-19.023438zm0 0"/><path d="m303.027344 37.417969c-5.003906-8.265625-7.675782-13.226563-4.460938-19.027344.171875-.3125.65625-.605469 1.011719-.617187 3.867187-.132813 6.898437-3.375 6.765625-7.242188s-3.402344-6.902344-7.238281-6.765625c-5.316407.179687-10.21875 3.183594-12.796875 7.832031-7.304688 13.1875-.632813 24.214844 4.730468 33.074219 4.277344 7.074219 6.789063 11.703125 5.605469 16.347656-.476562 1.867188-1.90625 3.535157-3.183593 3.714844-3.832032.535156-6.503907 4.074219-5.96875 7.910156.488281 3.503907 3.488281 6.035157 6.929687 6.035157.320313 0 .648437-.023438.980469-.066407 6.957031-.972656 12.910156-6.652343 14.820312-14.128906 2.722656-10.667969-2.546875-19.378906-7.195312-27.066406zm0 0"/></svg>