<svg id="Capa_1" enable-background="new 0 0 511.95 511.95" height="512" viewBox="0 0 511.95 511.95" width="512" xmlns="http://www.w3.org/2000/svg"><g><path d="m71.584 430.728h-47.517c-5 0-9.067-4.067-9.067-9.066v-250.067c0-4.143-3.358-7.5-7.5-7.5s-7.5 3.357-7.5 7.5v250.066c0 13.271 10.796 24.066 24.067 24.066h47.517c9.707.095 9.748-15.108 0-14.999z"/><path d="m507.361 418.784-44.769-44.769c44.326-59.533-7.686-150.711-82.116-141.719-5.074-10.819-26.611-157.942-41.318-159.032-11.839-10.364-54.119 6.497-67.323 7.455-28.886-19.691-72.396-19.045-100.752 1.788-6.051-4.98-13.752-17.162-22.783-16.245-.876.097-140.706-.11-141.449.032-3.784.262-6.9 3.677-6.851 7.467v67.833c0 4.143 3.358 7.5 7.5 7.5s7.5-3.357 7.5-7.5v-49.726l338.86 338.86h-252.277c-9.622-.143-9.809 15.144.001 15-.001 0 394.616 0 394.616 0 13.589.471 21.18-17.631 11.161-26.944zm-43.494-96.523c-.001 34.883-23.942 65.197-57.734 73.259l-14.719-14.718c.532-.495 1.05-1.001 1.552-1.52 28.98-1.671 53.343-27.927 52.767-57.021 1.523-49.921-64.222-76.492-97.971-40.076-5.473-3.694-11.76-5.991-18.274-6.728 41.063-55.5 136.655-22.797 134.379 46.804zm-151.428-28.803c12.327-6.915 27.982-2.513 34.897 9.813 4.945 6.177.803 15.03 5.627 20.695 1.719 1.563 4.061 2.245 6.347 1.839 24.936-4.878 40.603 28.11 21.489 44.381l-73.214-73.214c1.459-1.344 3.08-2.519 4.854-3.514zm86.744 37.714c-7.009-12.493-19.987-20.194-33.917-20.724-.824-6.283-3.205-12.472-6.86-17.729 51.131-46.074 107.423 41.987 44.471 69.196 2.771-9.982 1.763-21.016-3.694-30.743zm-74.998-246.534c4.754-1.139 9.875 2.157 10.8 6.958 0 0 30.697 143.253 30.697 143.253-23.535 6.113-43.828 21.539-56.015 43.338-4.672 1.875-9.032 4.712-12.679 8.189l-10.49-10.49c29.515-8.85 37.142-51.77 12.205-70.197 23.385-34.029 17.306-85.201-11.932-112.879zm-150.164 36.934c5.256 2.649 9.326 6.88 11.769 12.234 4.402 8.698 17.142.295 25.215 6.407 9.708 4.892 15.288 15.421 13.884 26.2-.3 2.302.483 4.612 2.119 6.258 5.867 4.565 14.54.041 20.923 4.705 9.708 4.891 15.287 15.42 13.884 26.199-.3 2.302.482 4.611 2.119 6.257 5.875 4.575 14.536.037 20.924 4.707 23.706 11.358 15.056 48.739-11.192 48.515l-132.626-132.627c7.037-10.767 21.231-14.777 32.981-8.855zm88.984 48.004c-6.312-5.546-14.679-9.101-23.038-9.796-1.26-20.896-20.835-38.518-42.007-37.251 31.321-24.442 78.506 9.508 65.045 47.047zm35.196-12.982c0 15.195-4.422 29.613-12.819 42.037-2.768-.863-5.61-1.436-8.49-1.689-.388-4.701-1.61-9.248-3.528-13.469 29.453-53.612-39.426-110.42-86.392-71.405-5.277-4.069-11.901-6.822-18.357-7.767 43.93-48.664 131.723-13.783 129.586 52.293zm-149.346-75.103 10.665 10.665c-4.423 4.368-8.439 9.226-11.962 14.543-6.695 2.642-12.707 7.055-17.266 12.98l-38.418-38.418c.553.225 56.593-.432 56.981.23zm256.246 349.237h-30.026l-349.468-349.467h45.053l349.467 349.467zm91.823-.483c-.202 1.405-54.883.004-55.583.483l-23.134-23.133c13.352-4.626 25.181-12.232 34.761-21.99.181.849 44.77 43.481 43.956 44.64z"/><path d="m49.701 405.094c0 4.143 3.358 7.5 7.5 7.5h66.267c4.142 0 7.5-3.357 7.5-7.5s-3.358-7.5-7.5-7.5h-66.267c-4.142 0-7.5 3.358-7.5 7.5z"/><path d="m48.134 272.561c-.163-11.761 18.298-11.759 18.133.001 0 4.142 3.358 7.499 7.5 7.499 18.792-3.679-.339-34.104-16.566-31.565-13.27-.002-24.067 10.794-24.067 24.065-.133 9.73 15.136 9.733 15 0z"/><path d="m40.634 362.895c11.525-.37 3.742-16.551 16.567-16.567 12.834.024 5.03 16.188 16.566 16.567 18.792-3.679-.339-34.105-16.566-31.566-16.229-2.536-35.36 27.886-16.567 31.566z"/><path d="m114.4 313.978c-.163-11.761 18.298-11.759 18.133.001 0 4.142 3.358 7.499 7.5 7.499 18.792-3.679-.339-34.104-16.566-31.565-13.27-.002-24.067 10.794-24.067 24.065-.132 9.73 15.137 9.733 15 0z"/></g></svg>