<svg id="Capa_1" enable-background="new 0 0 512 512" height="512" viewBox="0 0 512 512" width="512" xmlns="http://www.w3.org/2000/svg"><g><path d="m427.899 311.048v-147.119c0-42.911-23.325-82.471-60.873-103.243-19.383-10.725-43.11 3.31-43.11 25.417v29.897c0 5.523 4.478 10 10 10s10-4.477 10-10v-29.897c0-6.9 7.401-11.253 13.429-7.917 31.184 17.251 50.555 50.106 50.555 85.743v147.119c0 5.165-4.202 9.367-9.367 9.367-12.963 0-23.906 8.787-27.203 20.716h-27.413v-145.131c0-5.523-4.478-10-10-10s-10 4.477-10 10v155.131 94.58c0 18.304 14.891 33.195 33.195 33.195s33.195-14.891 33.195-33.195c0-7.897 0-82.264 0-97.071 0-4.536 3.69-8.226 8.226-8.226 16.193.001 29.366-13.173 29.366-29.366zm-70.788 147.858c-7.276 0-13.195-5.919-13.195-13.195v-84.58h26.391v84.58c0 7.274-5.918 13.195-13.196 13.195z"/><path d="m258.917 73.698c-15.212-4.922-30.771 6.401-30.769 22.389l.008 71.469c0 10.728-16.604 10.126-16.604-.542.003-22.442.005-60.22.005-82.354 0-15.237-12.399-27.634-27.641-27.634-15.277 0-27.641 12.364-27.639 27.642l.007 82.888c0 10.73-16.604 10.123-16.604-.542l.005-70.94c0-15.873-15.46-27.336-30.784-22.372-14.834 4.805-24.801 18.509-24.801 34.101v83.252c0 26.216 17.811 48.775 43.312 54.858 12.41 2.96 21.078 13.939 21.078 26.698v170.869c0 19.534 15.892 35.426 35.426 35.426s35.426-15.892 35.426-35.426c0-8.308 0-163.242 0-170.869 0-12.759 8.668-23.737 21.078-26.698 25.501-6.083 43.312-28.642 43.312-54.858v-83.252c-.001-15.598-9.972-29.304-24.815-34.105zm-59.575 369.782c0 8.506-6.92 15.426-15.426 15.426s-15.426-6.92-15.426-15.426v-143.729h30.852zm64.389-252.424c0 16.919-11.494 31.478-27.952 35.404-21.454 5.117-36.438 24.096-36.438 46.152v7.139h-30.851v-7.139c0-22.056-14.983-41.035-36.438-46.152-16.458-3.926-27.952-18.485-27.952-35.404v-83.252c0-6.893 4.405-12.95 10.974-15.077 2.313-.75 4.611.982 4.611 3.348l-.005 70.938c-.002 15.689 12.709 28.3 28.39 28.3h.459c15.341 0 27.757-12.415 27.755-27.758l-.007-82.888c0-4.222 3.416-7.64 7.639-7.64 4.213 0 7.641 3.424 7.641 7.634 0 22.133-.002 59.909-.005 82.351-.002 15.689 12.709 28.3 28.39 28.3h.459c15.341 0 27.758-12.415 27.756-27.758l-.008-71.469c0-2.397 2.327-4.098 4.614-3.358 6.561 2.122 10.969 8.181 10.969 15.076v83.253z"/><path d="m27.227 90.781c5.522 0 10-4.477 10-10v-42.903c0-9.858 8.02-17.878 17.878-17.878h42.902c5.522 0 10-4.477 10-10s-4.478-10-10-10h-42.902c-20.886 0-37.878 16.992-37.878 37.878v42.902c0 5.524 4.477 10.001 10 10.001z"/><path d="m456.895 0h-42.902c-5.522 0-10 4.477-10 10s4.478 10 10 10h42.902c9.858 0 17.879 8.02 17.879 17.878v42.902c0 5.523 4.478 10 10 10s10-4.477 10-10v-42.902c-.001-20.886-16.993-37.878-37.879-37.878z"/><path d="m484.773 421.219c-5.522 0-10 4.477-10 10v42.902c0 9.858-8.021 17.878-17.879 17.878h-42.902c-5.522 0-10 4.477-10 10s4.478 10 10 10h42.902c20.887 0 37.879-16.992 37.879-37.878v-42.902c0-5.523-4.477-10-10-10z"/><path d="m98.008 492h-42.903c-9.858 0-17.879-8.02-17.879-17.878v-42.902c0-5.523-4.478-10-10-10s-10 4.477-10 10v42.902c0 20.886 16.992 37.878 37.879 37.878h42.902c5.522 0 10-4.477 10-10s-4.477-10-9.999-10z"/><path d="m333.916 166.012c5.522 0 10-4.489 10-10.012s-4.478-10-10-10-10 4.477-10 10v.025c0 5.523 4.478 9.987 10 9.987z"/></g></svg>